<?xml version="1.0" standalone="no"?>
<!DOCTYPE svg PUBLIC "-//W3C//DTD SVG 20010904//EN"
 "http://www.w3.org/TR/2001/REC-SVG-20010904/DTD/svg10.dtd">
<svg version="1.0" xmlns="http://www.w3.org/2000/svg"
 width="265.000000pt" height="117.000000pt" viewBox="0 0 265.000000 117.000000"
 preserveAspectRatio="xMidYMid meet">

<g transform="translate(0.000000,117.000000) scale(0.100000,-0.100000)"
fill="#000000" stroke="none">
<path d="M434 910 c-32 -13 -64 -59 -64 -92 0 -36 24 -84 49 -98 11 -5 84 -10
164 -10 l145 0 31 29 c57 54 36 150 -38 171 -43 12 -257 12 -287 0z"/>
<path d="M1130 635 c0 -140 2 -165 15 -165 12 0 15 16 15 80 l0 80 55 0 c48 0
55 2 55 20 0 18 -7 20 -55 20 l-55 0 0 45 0 45 70 0 c63 0 70 2 70 20 0 18 -7
20 -85 20 l-85 0 0 -165z"/>
<path d="M1350 760 c0 -16 5 -21 23 -18 12 2 22 10 22 18 0 8 -10 16 -22 18
-18 3 -23 -2 -23 -18z"/>
<path d="M411 674 c-61 -51 -46 -140 27 -171 l37 -15 -34 -12 c-43 -14 -76
-71 -66 -115 10 -47 51 -81 97 -81 48 0 83 22 97 62 6 17 11 81 12 142 0 61 3
104 6 96 13 -41 29 -61 61 -76 105 -49 195 84 113 167 -53 53 -149 28 -170
-44 -9 -30 -9 -29 -10 21 l-1 52 -69 0 c-60 0 -74 -4 -100 -26z"/>
<path d="M1512 685 c-38 -17 -52 -42 -52 -95 0 -44 33 -89 67 -91 32 -2 58 3
71 13 9 8 12 3 12 -20 0 -44 -35 -75 -77 -69 -41 7 -54 -19 -17 -33 34 -13 40
-13 74 5 49 25 60 60 60 185 0 103 -1 110 -20 110 -11 0 -20 -5 -20 -11 0 -8
-4 -8 -12 -2 -23 18 -55 21 -86 8z m78 -45 c11 -11 20 -31 20 -45 0 -30 -32
-65 -59 -65 -20 0 -61 44 -61 65 0 21 41 65 61 65 10 0 28 -9 39 -20z"/>
<path d="M1795 690 c-11 -4 -32 -5 -47 -3 l-28 6 0 -112 c0 -104 1 -111 20
-111 18 0 20 7 20 85 0 81 1 86 25 97 21 9 28 8 45 -7 17 -15 20 -31 20 -97 0
-71 2 -78 20 -78 18 0 20 7 20 85 0 80 1 86 24 96 17 8 29 8 45 0 19 -11 21
-20 21 -96 0 -80 1 -85 21 -85 20 0 21 4 17 89 -2 68 -7 94 -21 109 -26 29
-52 32 -92 12 -19 -10 -35 -14 -35 -10 0 14 -54 28 -75 20z"/>
<path d="M2143 692 c-36 -6 -73 -58 -73 -103 0 -95 72 -144 150 -104 27 14 30
14 30 0 0 -8 7 -15 15 -15 12 0 15 19 15 110 0 91 -3 110 -15 110 -8 0 -15 -7
-15 -16 0 -13 -3 -14 -14 -5 -19 16 -66 28 -93 23z m77 -57 c46 -49 19 -125
-45 -125 -50 0 -83 49 -64 97 21 56 71 69 109 28z"/>
<path d="M1350 580 c0 -103 1 -110 20 -110 19 0 20 7 20 110 0 103 -1 110 -20
110 -19 0 -20 -7 -20 -110z"/>
</g>
</svg>
