<?xml version="1.0" standalone="no"?>
<!DOCTYPE svg PUBLIC "-//W3C//DTD SVG 20010904//EN"
 "http://www.w3.org/TR/2001/REC-SVG-20010904/DTD/svg10.dtd">
<svg version="1.0" xmlns="http://www.w3.org/2000/svg"
 width="255.000000pt" height="112.000000pt" viewBox="0 0 255.000000 112.000000"
 preserveAspectRatio="xMidYMid meet">

<g transform="translate(0.000000,112.000000) scale(0.100000,-0.100000)"
fill="#000000" stroke="none">
<path d="M660 778 c-139 -167 -195 -279 -195 -394 0 -60 4 -77 27 -111 38 -58
101 -86 192 -86 123 -1 126 0 1054 398 292 126 531 230 529 231 -2 2 -300 -76
-663 -172 -573 -153 -669 -176 -739 -178 -93 -1 -138 16 -176 67 -21 28 -24
43 -24 112 0 66 5 90 27 138 15 31 25 57 23 57 -2 0 -27 -28 -55 -62z"/>
</g>
</svg>
